<svg xmlns="http://www.w3.org/2000/svg" xmlns:xlink="http://www.w3.org/1999/xlink" contentStyleType="text/css" data-diagram-type="ACTIVITY" height="2710px" preserveAspectRatio="none" style="width:1142px;height:2710px;background:#FFFFFF;" version="1.1" viewBox="0 0 1142 2710" width="1142px" zoomAndPan="magnify"><?plantuml 1.2026.3beta6?><defs/><g><g class="title" data-source-line="1"><text fill="#000000" font-family="sans-serif" font-size="14" font-weight="700" lengthAdjust="spacing" textLength="378.5879" x="381.1455" y="32.9951">Flujo funcional del proyecto en el portal interno</text></g><ellipse cx="569.4395" cy="62.2969" fill="#222222" rx="10" ry="10" style="stroke:#222222;stroke-width:1;"/><rect fill="#F1F1F1" height="33.9688" rx="12.5" ry="12.5" style="stroke:#181818;stroke-width:0.5;" width="123.2188" x="507.8301" y="92.2969"/><text fill="#000000" font-family="sans-serif" font-size="12" lengthAdjust="spacing" textLength="103.2188" x="517.8301" y="113.4355">Ingresar al portal</text><rect fill="#F1F1F1" height="33.9688" rx="12.5" ry="12.5" style="stroke:#181818;stroke-width:0.5;" width="180.1836" x="479.3477" y="146.2656"/><text fill="#000000" font-family="sans-serif" font-size="12" lengthAdjust="spacing" textLength="160.1836" x="489.3477" y="167.4043">Autenticarse en el sistema</text><polygon fill="#F1F1F1" points="507.1294,200.2344,631.7495,200.2344,643.7495,212.2344,631.7495,224.2344,507.1294,224.2344,495.1294,212.2344,507.1294,200.2344" style="stroke:#181818;stroke-width:0.5;"/><text fill="#000000" font-family="sans-serif" font-size="11" lengthAdjust="spacing" textLength="124.6201" x="507.1294" y="216.0425">Usuario con permisos?</text><text fill="#000000" font-family="sans-serif" font-size="11" lengthAdjust="spacing" textLength="10.0386" x="485.0908" y="209.6401">S&#237;</text><text fill="#000000" font-family="sans-serif" font-size="11" lengthAdjust="spacing" textLength="14.9585" x="643.7495" y="209.6401">No</text><rect fill="#F1F1F1" height="33.9688" rx="12.5" ry="12.5" style="stroke:#181818;stroke-width:0.5;" width="133.3789" x="415.6689" y="234.2344"/><text fill="#000000" font-family="sans-serif" font-size="12" lengthAdjust="spacing" textLength="113.3789" x="425.6689" y="255.373">Mostrar dashboard</text><rect fill="#F1F1F1" height="33.9688" rx="12.5" ry="12.5" style="stroke:#181818;stroke-width:0.5;" width="174.9453" x="569.0479" y="234.2344"/><text fill="#000000" font-family="sans-serif" font-size="12" lengthAdjust="spacing" textLength="154.9453" x="579.0479" y="255.373">Mostrar acceso denegado</text><ellipse cx="656.5205" cy="299.2031" fill="none" rx="11" ry="11" style="stroke:#222222;stroke-width:1;"/><ellipse cx="656.5205" cy="299.2031" fill="#222222" rx="6" ry="6" style="stroke:#222222;stroke-width:1;"/><rect fill="#F1F1F1" height="33.9688" rx="12.5" ry="12.5" style="stroke:#181818;stroke-width:0.5;" width="173.2402" x="482.8193" y="330.2031"/><text fill="#000000" font-family="sans-serif" font-size="12" lengthAdjust="spacing" textLength="153.2402" x="492.8193" y="351.3418">Ir al m&#243;dulo de Proyectos</text><polygon fill="#F1F1F1" points="521.1533,384.1719,617.7256,384.1719,629.7256,396.1719,617.7256,408.1719,521.1533,408.1719,509.1533,396.1719,521.1533,384.1719" style="stroke:#181818;stroke-width:0.5;"/><text fill="#000000" font-family="sans-serif" font-size="11" lengthAdjust="spacing" textLength="96.5723" x="521.1533" y="399.98">&#191;Proyecto existe?</text><text fill="#000000" font-family="sans-serif" font-size="11" lengthAdjust="spacing" textLength="10.0386" x="499.1147" y="393.5776">S&#237;</text><text fill="#000000" font-family="sans-serif" font-size="11" lengthAdjust="spacing" textLength="14.9585" x="629.7256" y="393.5776">No</text><rect fill="#F1F1F1" height="33.9688" rx="12.5" ry="12.5" style="stroke:#181818;stroke-width:0.5;" width="146.3164" x="386.208" y="418.1719"/><text fill="#000000" font-family="sans-serif" font-size="12" lengthAdjust="spacing" textLength="126.3164" x="396.208" y="439.3105">Seleccionar proyecto</text><rect fill="#F1F1F1" height="33.9688" rx="12.5" ry="12.5" style="stroke:#181818;stroke-width:0.5;" width="150.6699" x="604.1777" y="418.1719"/><text fill="#000000" font-family="sans-serif" font-size="12" lengthAdjust="spacing" textLength="130.6699" x="614.1777" y="439.3105">Crear nuevo proyecto</text><rect fill="#F1F1F1" height="33.9688" rx="12.5" ry="12.5" style="stroke:#181818;stroke-width:0.5;" width="253.9766" x="552.5244" y="472.1406"/><text fill="#000000" font-family="sans-serif" font-size="12" lengthAdjust="spacing" textLength="233.9766" x="562.5244" y="493.2793">Registrar datos generales del proyecto</text><rect fill="#F1F1F1" height="33.9688" rx="12.5" ry="12.5" style="stroke:#181818;stroke-width:0.5;" width="223.4141" x="567.8057" y="526.1094"/><text fill="#000000" font-family="sans-serif" font-size="12" lengthAdjust="spacing" textLength="203.4141" x="577.8057" y="547.248">Asignar responsables y miembros</text><rect fill="#F1F1F1" height="33.9688" rx="12.5" ry="12.5" style="stroke:#181818;stroke-width:0.5;" width="125.9316" x="616.5469" y="580.0781"/><text fill="#000000" font-family="sans-serif" font-size="12" lengthAdjust="spacing" textLength="105.9316" x="626.5469" y="601.2168">Guardar proyecto</text><polygon fill="#F1F1F1" points="569.4395,620.0469,581.4395,632.0469,569.4395,644.0469,557.4395,632.0469,569.4395,620.0469" style="stroke:#181818;stroke-width:0.5;"/><rect fill="#F1F1F1" height="33.9688" rx="12.5" ry="12.5" style="stroke:#181818;stroke-width:0.5;" width="189.9219" x="474.4785" y="664.0469"/><text fill="#000000" font-family="sans-serif" font-size="12" lengthAdjust="spacing" textLength="169.9219" x="484.4785" y="685.1855">Visualizar ficha del proyecto</text><rect fill="#555555" height="6" rx="2.5" ry="2.5" style="stroke:#555555;stroke-width:1;" width="1106.8789" x="16" y="718.0156"/><rect fill="#F1F1F1" height="33.9688" rx="12.5" ry="12.5" style="stroke:#181818;stroke-width:0.5;" width="213.1602" x="28" y="744.0156"/><text fill="#000000" font-family="sans-serif" font-size="12" lengthAdjust="spacing" textLength="193.1602" x="38" y="765.1543">Consultar resumen del proyecto</text><rect fill="#F1F1F1" height="33.9688" rx="12.5" ry="12.5" style="stroke:#181818;stroke-width:0.5;" width="233.7676" x="251.1602" y="744.0156"/><text fill="#000000" font-family="sans-serif" font-size="12" lengthAdjust="spacing" textLength="213.7676" x="261.1602" y="765.1543">Consultar documentaci&#243;n existente</text><rect fill="#F1F1F1" height="33.9688" rx="12.5" ry="12.5" style="stroke:#181818;stroke-width:0.5;" width="203.375" x="512.9277" y="744.0156"/><text fill="#000000" font-family="sans-serif" font-size="12" lengthAdjust="spacing" textLength="183.375" x="522.9277" y="765.1543">Consultar bit&#225;cora de cambios</text><rect fill="#F1F1F1" height="33.9688" rx="12.5" ry="12.5" style="stroke:#181818;stroke-width:0.5;" width="179.4043" x="744.3027" y="744.0156"/><text fill="#000000" font-family="sans-serif" font-size="12" lengthAdjust="spacing" textLength="159.4043" x="754.3027" y="765.1543">Consultar HU relacionadas</text><rect fill="#F1F1F1" height="33.9688" rx="12.5" ry="12.5" style="stroke:#181818;stroke-width:0.5;" width="177.1719" x="933.707" y="744.0156"/><text fill="#000000" font-family="sans-serif" font-size="12" lengthAdjust="spacing" textLength="157.1719" x="943.707" y="765.1543">Consultar PR relacionadas</text><rect fill="#555555" height="6" rx="2.5" ry="2.5" style="stroke:#555555;stroke-width:1;" width="1106.8789" x="16" y="797.9844"/><rect fill="#F1F1F1" height="33.9688" rx="12.5" ry="12.5" style="stroke:#181818;stroke-width:0.5;" width="215.2402" x="461.8193" y="872.3867"/><text fill="#000000" font-family="sans-serif" font-size="12" lengthAdjust="spacing" textLength="195.2402" x="471.8193" y="893.5254">Entrar a m&#243;dulo Documentaci&#243;n</text><rect fill="#F1F1F1" height="33.9688" rx="12.5" ry="12.5" style="stroke:#181818;stroke-width:0.5;" width="138.4063" x="500.2363" y="926.3555"/><text fill="#000000" font-family="sans-serif" font-size="12" lengthAdjust="spacing" textLength="118.4063" x="510.2363" y="947.4941">Seleccionar secci&#243;n</text><polygon fill="#F1F1F1" points="523.9785,980.3242,614.9004,980.3242,626.9004,992.3242,614.9004,1004.3242,523.9785,1004.3242,511.9785,992.3242,523.9785,980.3242" style="stroke:#181818;stroke-width:0.5;"/><text fill="#000000" font-family="sans-serif" font-size="11" lengthAdjust="spacing" textLength="90.9219" x="523.9785" y="996.1323">&#191;Secci&#243;n existe?</text><text fill="#000000" font-family="sans-serif" font-size="11" lengthAdjust="spacing" textLength="10.0386" x="501.9399" y="989.73">S&#237;</text><text fill="#000000" font-family="sans-serif" font-size="11" lengthAdjust="spacing" textLength="14.9585" x="626.9004" y="989.73">No</text><rect fill="#F1F1F1" height="33.9688" rx="12.5" ry="12.5" style="stroke:#181818;stroke-width:0.5;" width="118.8711" x="426.0605" y="1014.3242"/><text fill="#000000" font-family="sans-serif" font-size="12" lengthAdjust="spacing" textLength="98.8711" x="436.0605" y="1035.4629">Editar contenido</text><rect fill="#F1F1F1" height="33.9688" rx="12.5" ry="12.5" style="stroke:#181818;stroke-width:0.5;" width="142.7715" x="581.9971" y="1014.3242"/><text fill="#000000" font-family="sans-serif" font-size="12" lengthAdjust="spacing" textLength="122.7715" x="591.9971" y="1035.4629">Crear nueva secci&#243;n</text><rect fill="#F1F1F1" height="33.9688" rx="12.5" ry="12.5" style="stroke:#181818;stroke-width:0.5;" width="176.9023" x="564.9316" y="1068.293"/><text fill="#000000" font-family="sans-serif" font-size="12" lengthAdjust="spacing" textLength="156.9023" x="574.9316" y="1089.4316">Registrar contenido inicial</text><polygon fill="#F1F1F1" points="569.4395,1108.2617,581.4395,1120.2617,569.4395,1132.2617,557.4395,1120.2617,569.4395,1108.2617" style="stroke:#181818;stroke-width:0.5;"/><rect fill="#F1F1F1" height="33.9688" rx="12.5" ry="12.5" style="stroke:#181818;stroke-width:0.5;" width="232.2676" x="453.3057" y="1152.2617"/><text fill="#000000" font-family="sans-serif" font-size="12" lengthAdjust="spacing" textLength="212.2676" x="463.3057" y="1173.4004">Guardar versi&#243;n de documentaci&#243;n</text><polygon fill="#F1F1F1" points="462.8259,823.9844,676.053,823.9844,688.053,835.9844,676.053,847.9844,462.8259,847.9844,450.8259,835.9844,462.8259,823.9844" style="stroke:#181818;stroke-width:0.5;"/><text fill="#000000" font-family="sans-serif" font-size="11" lengthAdjust="spacing" textLength="10.0386" x="573.4395" y="858.1948">S&#237;</text><text fill="#000000" font-family="sans-serif" font-size="11" lengthAdjust="spacing" textLength="213.2271" x="462.8259" y="839.7925">&#191;Se requiere documentar o actualizar?</text><polygon fill="#F1F1F1" points="569.4395,1206.2305,581.4395,1218.2305,569.4395,1230.2305,557.4395,1218.2305,569.4395,1206.2305" style="stroke:#181818;stroke-width:0.5;"/><rect fill="#F1F1F1" height="33.9688" rx="12.5" ry="12.5" style="stroke:#181818;stroke-width:0.5;" width="121.9473" x="508.4658" y="1298.6328"/><text fill="#000000" font-family="sans-serif" font-size="12" lengthAdjust="spacing" textLength="101.9473" x="518.4658" y="1319.7715">Entrar a Bit&#225;cora</text><rect fill="#F1F1F1" height="33.9688" rx="12.5" ry="12.5" style="stroke:#181818;stroke-width:0.5;" width="141.582" x="498.6484" y="1352.6016"/><text fill="#000000" font-family="sans-serif" font-size="12" lengthAdjust="spacing" textLength="121.582" x="508.6484" y="1373.7402">Crear nuevo cambio</text><rect fill="#F1F1F1" height="33.9688" rx="12.5" ry="12.5" style="stroke:#181818;stroke-width:0.5;" width="168.2246" x="485.3271" y="1406.5703"/><text fill="#000000" font-family="sans-serif" font-size="12" lengthAdjust="spacing" textLength="148.2246" x="495.3271" y="1427.709">Registrar tipo de cambio</text><rect fill="#F1F1F1" height="33.9688" rx="12.5" ry="12.5" style="stroke:#181818;stroke-width:0.5;" width="206.0938" x="466.3926" y="1460.5391"/><text fill="#000000" font-family="sans-serif" font-size="12" lengthAdjust="spacing" textLength="186.0938" x="476.3926" y="1481.6777">Registrar descripci&#243;n funcional</text><rect fill="#F1F1F1" height="33.9688" rx="12.5" ry="12.5" style="stroke:#181818;stroke-width:0.5;" width="194.668" x="472.1055" y="1514.5078"/><text fill="#000000" font-family="sans-serif" font-size="12" lengthAdjust="spacing" textLength="174.668" x="482.1055" y="1535.6465">Registrar descripci&#243;n t&#233;cnica</text><rect fill="#F1F1F1" height="33.9688" rx="12.5" ry="12.5" style="stroke:#181818;stroke-width:0.5;" width="194.416" x="472.2314" y="1568.4766"/><text fill="#000000" font-family="sans-serif" font-size="12" lengthAdjust="spacing" textLength="174.416" x="482.2314" y="1589.6152">Registrar ambiente y versi&#243;n</text><rect fill="#F1F1F1" height="33.9688" rx="12.5" ry="12.5" style="stroke:#181818;stroke-width:0.5;" width="223.0332" x="457.9229" y="1622.4453"/><text fill="#000000" font-family="sans-serif" font-size="12" lengthAdjust="spacing" textLength="203.0332" x="467.9229" y="1643.584">Asociar componentes impactados</text><rect fill="#F1F1F1" height="33.9688" rx="12.5" ry="12.5" style="stroke:#181818;stroke-width:0.5;" width="90.5938" x="524.1426" y="1724.8164"/><text fill="#000000" font-family="sans-serif" font-size="12" lengthAdjust="spacing" textLength="70.5938" x="534.1426" y="1745.9551">Vincular HU</text><polygon fill="#F1F1F1" points="528.0203,1676.4141,610.8586,1676.4141,622.8586,1688.4141,610.8586,1700.4141,528.0203,1700.4141,516.0203,1688.4141,528.0203,1676.4141" style="stroke:#181818;stroke-width:0.5;"/><text fill="#000000" font-family="sans-serif" font-size="11" lengthAdjust="spacing" textLength="10.0386" x="573.4395" y="1710.6245">S&#237;</text><text fill="#000000" font-family="sans-serif" font-size="11" lengthAdjust="spacing" textLength="82.8384" x="528.0203" y="1692.2222">&#191;Tiene HU Jira?</text><polygon fill="#F1F1F1" points="569.4395,1778.7852,581.4395,1790.7852,569.4395,1802.7852,557.4395,1790.7852,569.4395,1778.7852" style="stroke:#181818;stroke-width:0.5;"/><rect fill="#F1F1F1" height="33.9688" rx="12.5" ry="12.5" style="stroke:#181818;stroke-width:0.5;" width="88.3613" x="525.2588" y="1871.1875"/><text fill="#000000" font-family="sans-serif" font-size="12" lengthAdjust="spacing" textLength="68.3613" x="535.2588" y="1892.3262">Vincular PR</text><polygon fill="#F1F1F1" points="516.2656,1822.7852,622.6133,1822.7852,634.6133,1834.7852,622.6133,1846.7852,516.2656,1846.7852,504.2656,1834.7852,516.2656,1822.7852" style="stroke:#181818;stroke-width:0.5;"/><text fill="#000000" font-family="sans-serif" font-size="11" lengthAdjust="spacing" textLength="10.0386" x="573.4395" y="1856.9956">S&#237;</text><text fill="#000000" font-family="sans-serif" font-size="11" lengthAdjust="spacing" textLength="106.3477" x="516.2656" y="1838.5933">&#191;Tiene PR DevOps?</text><polygon fill="#F1F1F1" points="569.4395,1925.1563,581.4395,1937.1563,569.4395,1949.1563,557.4395,1937.1563,569.4395,1925.1563" style="stroke:#181818;stroke-width:0.5;"/><rect fill="#F1F1F1" height="33.9688" rx="12.5" ry="12.5" style="stroke:#181818;stroke-width:0.5;" width="106.7363" x="516.0713" y="2017.5586"/><text fill="#000000" font-family="sans-serif" font-size="12" lengthAdjust="spacing" textLength="86.7363" x="526.0713" y="2038.6973">Subir adjuntos</text><polygon fill="#F1F1F1" points="522.9634,1969.1563,615.9155,1969.1563,627.9155,1981.1563,615.9155,1993.1563,522.9634,1993.1563,510.9634,1981.1563,522.9634,1969.1563" style="stroke:#181818;stroke-width:0.5;"/><text fill="#000000" font-family="sans-serif" font-size="11" lengthAdjust="spacing" textLength="10.0386" x="573.4395" y="2003.3667">S&#237;</text><text fill="#000000" font-family="sans-serif" font-size="11" lengthAdjust="spacing" textLength="92.9521" x="522.9634" y="1984.9644">&#191;Tiene adjuntos?</text><polygon fill="#F1F1F1" points="569.4395,2071.5273,581.4395,2083.5273,569.4395,2095.5273,557.4395,2083.5273,569.4395,2071.5273" style="stroke:#181818;stroke-width:0.5;"/><rect fill="#F1F1F1" height="33.9688" rx="12.5" ry="12.5" style="stroke:#181818;stroke-width:0.5;" width="146.3984" x="496.2402" y="2163.9297"/><text fill="#000000" font-family="sans-serif" font-size="12" lengthAdjust="spacing" textLength="126.3984" x="506.2402" y="2185.0684">Agregar comentarios</text><polygon fill="#F1F1F1" points="480.803,2115.5273,658.0759,2115.5273,670.0759,2127.5273,658.0759,2139.5273,480.803,2139.5273,468.803,2127.5273,480.803,2115.5273" style="stroke:#181818;stroke-width:0.5;"/><text fill="#000000" font-family="sans-serif" font-size="11" lengthAdjust="spacing" textLength="10.0386" x="573.4395" y="2149.7378">S&#237;</text><text fill="#000000" font-family="sans-serif" font-size="11" lengthAdjust="spacing" textLength="177.2729" x="480.803" y="2131.3354">&#191;Hay observaciones del equipo?</text><polygon fill="#F1F1F1" points="569.4395,2217.8984,581.4395,2229.8984,569.4395,2241.8984,557.4395,2229.8984,569.4395,2217.8984" style="stroke:#181818;stroke-width:0.5;"/><rect fill="#F1F1F1" height="33.9688" rx="12.5" ry="12.5" style="stroke:#181818;stroke-width:0.5;" width="188.6973" x="475.0908" y="2261.8984"/><text fill="#000000" font-family="sans-serif" font-size="12" lengthAdjust="spacing" textLength="168.6973" x="485.0908" y="2283.0371">Guardar cambio en bit&#225;cora</text><polygon fill="#F1F1F1" points="491.3357,1250.2305,647.5432,1250.2305,659.5432,1262.2305,647.5432,1274.2305,491.3357,1274.2305,479.3357,1262.2305,491.3357,1250.2305" style="stroke:#181818;stroke-width:0.5;"/><text fill="#000000" font-family="sans-serif" font-size="11" lengthAdjust="spacing" textLength="10.0386" x="573.4395" y="1284.4409">S&#237;</text><text fill="#000000" font-family="sans-serif" font-size="11" lengthAdjust="spacing" textLength="156.2075" x="491.3357" y="1266.0386">&#191;Se implement&#243; un cambio?</text><polygon fill="#F1F1F1" points="569.4395,2315.8672,581.4395,2327.8672,569.4395,2339.8672,557.4395,2327.8672,569.4395,2315.8672" style="stroke:#181818;stroke-width:0.5;"/><rect fill="#F1F1F1" height="33.9688" rx="12.5" ry="12.5" style="stroke:#181818;stroke-width:0.5;" width="262.6074" x="438.1357" y="2408.2695"/><text fill="#000000" font-family="sans-serif" font-size="12" lengthAdjust="spacing" textLength="242.6074" x="448.1357" y="2429.4082">Buscar proyecto/cambio/documentaci&#243;n</text><rect fill="#F1F1F1" height="33.9688" rx="12.5" ry="12.5" style="stroke:#181818;stroke-width:0.5;" width="283.1328" x="427.873" y="2462.2383"/><text fill="#000000" font-family="sans-serif" font-size="12" lengthAdjust="spacing" textLength="263.1328" x="437.873" y="2483.377">Filtrar por fecha, tipo, responsable o estado</text><rect fill="#F1F1F1" height="33.9688" rx="12.5" ry="12.5" style="stroke:#181818;stroke-width:0.5;" width="215.5977" x="461.6406" y="2516.207"/><text fill="#000000" font-family="sans-serif" font-size="12" lengthAdjust="spacing" textLength="195.5977" x="471.6406" y="2537.3457">Visualizar historial y trazabilidad</text><polygon fill="#F1F1F1" points="480.3438,2359.8672,658.5352,2359.8672,670.5352,2371.8672,658.5352,2383.8672,480.3438,2383.8672,468.3438,2371.8672,480.3438,2359.8672" style="stroke:#181818;stroke-width:0.5;"/><text fill="#000000" font-family="sans-serif" font-size="11" lengthAdjust="spacing" textLength="10.0386" x="573.4395" y="2394.0776">S&#237;</text><text fill="#000000" font-family="sans-serif" font-size="11" lengthAdjust="spacing" textLength="178.1914" x="480.3438" y="2375.6753">&#191;Se requiere consulta posterior?</text><polygon fill="#F1F1F1" points="569.4395,2570.1758,581.4395,2582.1758,569.4395,2594.1758,557.4395,2582.1758,569.4395,2570.1758" style="stroke:#181818;stroke-width:0.5;"/><rect fill="#F1F1F1" height="33.9688" rx="12.5" ry="12.5" style="stroke:#181818;stroke-width:0.5;" width="231.6113" x="453.6338" y="2614.1758"/><text fill="#000000" font-family="sans-serif" font-size="12" lengthAdjust="spacing" textLength="211.6113" x="463.6338" y="2635.3145">Actualizar dashboard e indicadores</text><ellipse cx="569.4395" cy="2679.1445" fill="none" rx="11" ry="11" style="stroke:#222222;stroke-width:1;"/><ellipse cx="569.4395" cy="2679.1445" fill="#222222" rx="6" ry="6" style="stroke:#222222;stroke-width:1;"/><line style="stroke:#181818;stroke-width:1;" x1="569.4395" x2="569.4395" y1="72.2969" y2="92.2969"/><polygon fill="#181818" points="565.4395,82.2969,569.4395,92.2969,573.4395,82.2969,569.4395,86.2969" style="stroke:#181818;stroke-width:1;"/><line style="stroke:#181818;stroke-width:1;" x1="569.4395" x2="569.4395" y1="126.2656" y2="146.2656"/><polygon fill="#181818" points="565.4395,136.2656,569.4395,146.2656,573.4395,136.2656,569.4395,140.2656" style="stroke:#181818;stroke-width:1;"/><line style="stroke:#181818;stroke-width:1;" x1="656.5205" x2="656.5205" y1="268.2031" y2="288.2031"/><polygon fill="#181818" points="652.5205,278.2031,656.5205,288.2031,660.5205,278.2031,656.5205,282.2031" style="stroke:#181818;stroke-width:1;"/><line style="stroke:#181818;stroke-width:1;" x1="495.1294" x2="482.3584" y1="212.2344" y2="212.2344"/><line style="stroke:#181818;stroke-width:1;" x1="482.3584" x2="482.3584" y1="212.2344" y2="234.2344"/><polygon fill="#181818" points="478.3584,224.2344,482.3584,234.2344,486.3584,224.2344,482.3584,228.2344" style="stroke:#181818;stroke-width:1;"/><line style="stroke:#181818;stroke-width:1;" x1="643.7495" x2="656.5205" y1="212.2344" y2="212.2344"/><line style="stroke:#181818;stroke-width:1;" x1="656.5205" x2="656.5205" y1="212.2344" y2="234.2344"/><polygon fill="#181818" points="652.5205,224.2344,656.5205,234.2344,660.5205,224.2344,656.5205,228.2344" style="stroke:#181818;stroke-width:1;"/><line style="stroke:#181818;stroke-width:1;" x1="482.3584" x2="482.3584" y1="268.2031" y2="315.2031"/><line style="stroke:#181818;stroke-width:1;" x1="482.3584" x2="569.4395" y1="315.2031" y2="315.2031"/><line style="stroke:#181818;stroke-width:1;" x1="569.4395" x2="569.4395" y1="315.2031" y2="330.2031"/><polygon fill="#181818" points="565.4395,320.2031,569.4395,330.2031,573.4395,320.2031,569.4395,324.2031" style="stroke:#181818;stroke-width:1;"/><line style="stroke:#181818;stroke-width:1;" x1="569.4395" x2="569.4395" y1="180.2344" y2="200.2344"/><polygon fill="#181818" points="565.4395,190.2344,569.4395,200.2344,573.4395,190.2344,569.4395,194.2344" style="stroke:#181818;stroke-width:1;"/><line style="stroke:#181818;stroke-width:1;" x1="679.5127" x2="679.5127" y1="452.1406" y2="472.1406"/><polygon fill="#181818" points="675.5127,462.1406,679.5127,472.1406,683.5127,462.1406,679.5127,466.1406" style="stroke:#181818;stroke-width:1;"/><line style="stroke:#181818;stroke-width:1;" x1="679.5127" x2="679.5127" y1="506.1094" y2="526.1094"/><polygon fill="#181818" points="675.5127,516.1094,679.5127,526.1094,683.5127,516.1094,679.5127,520.1094" style="stroke:#181818;stroke-width:1;"/><line style="stroke:#181818;stroke-width:1;" x1="679.5127" x2="679.5127" y1="560.0781" y2="580.0781"/><polygon fill="#181818" points="675.5127,570.0781,679.5127,580.0781,683.5127,570.0781,679.5127,574.0781" style="stroke:#181818;stroke-width:1;"/><line style="stroke:#181818;stroke-width:1;" x1="509.1533" x2="459.3662" y1="396.1719" y2="396.1719"/><line style="stroke:#181818;stroke-width:1;" x1="459.3662" x2="459.3662" y1="396.1719" y2="418.1719"/><polygon fill="#181818" points="455.3662,408.1719,459.3662,418.1719,463.3662,408.1719,459.3662,412.1719" style="stroke:#181818;stroke-width:1;"/><line style="stroke:#181818;stroke-width:1;" x1="629.7256" x2="679.5127" y1="396.1719" y2="396.1719"/><line style="stroke:#181818;stroke-width:1;" x1="679.5127" x2="679.5127" y1="396.1719" y2="418.1719"/><polygon fill="#181818" points="675.5127,408.1719,679.5127,418.1719,683.5127,408.1719,679.5127,412.1719" style="stroke:#181818;stroke-width:1;"/><line style="stroke:#181818;stroke-width:1;" x1="459.3662" x2="459.3662" y1="452.1406" y2="632.0469"/><line style="stroke:#181818;stroke-width:1;" x1="459.3662" x2="557.4395" y1="632.0469" y2="632.0469"/><polygon fill="#181818" points="547.4395,628.0469,557.4395,632.0469,547.4395,636.0469,551.4395,632.0469" style="stroke:#181818;stroke-width:1;"/><line style="stroke:#181818;stroke-width:1;" x1="679.5127" x2="679.5127" y1="614.0469" y2="632.0469"/><line style="stroke:#181818;stroke-width:1;" x1="679.5127" x2="581.4395" y1="632.0469" y2="632.0469"/><polygon fill="#181818" points="591.4395,628.0469,581.4395,632.0469,591.4395,636.0469,587.4395,632.0469" style="stroke:#181818;stroke-width:1;"/><line style="stroke:#181818;stroke-width:1;" x1="569.4395" x2="569.4395" y1="364.1719" y2="384.1719"/><polygon fill="#181818" points="565.4395,374.1719,569.4395,384.1719,573.4395,374.1719,569.4395,378.1719" style="stroke:#181818;stroke-width:1;"/><line style="stroke:#181818;stroke-width:1;" x1="569.4395" x2="569.4395" y1="644.0469" y2="664.0469"/><polygon fill="#181818" points="565.4395,654.0469,569.4395,664.0469,573.4395,654.0469,569.4395,658.0469" style="stroke:#181818;stroke-width:1;"/><line style="stroke:#181818;stroke-width:1;" x1="134.5801" x2="134.5801" y1="724.0156" y2="744.0156"/><polygon fill="#181818" points="130.5801,734.0156,134.5801,744.0156,138.5801,734.0156,134.5801,738.0156" style="stroke:#181818;stroke-width:1;"/><line style="stroke:#181818;stroke-width:1;" x1="368.0439" x2="368.0439" y1="724.0156" y2="744.0156"/><polygon fill="#181818" points="364.0439,734.0156,368.0439,744.0156,372.0439,734.0156,368.0439,738.0156" style="stroke:#181818;stroke-width:1;"/><line style="stroke:#181818;stroke-width:1;" x1="614.6152" x2="614.6152" y1="724.0156" y2="744.0156"/><polygon fill="#181818" points="610.6152,734.0156,614.6152,744.0156,618.6152,734.0156,614.6152,738.0156" style="stroke:#181818;stroke-width:1;"/><line style="stroke:#181818;stroke-width:1;" x1="834.0049" x2="834.0049" y1="724.0156" y2="744.0156"/><polygon fill="#181818" points="830.0049,734.0156,834.0049,744.0156,838.0049,734.0156,834.0049,738.0156" style="stroke:#181818;stroke-width:1;"/><line style="stroke:#181818;stroke-width:1;" x1="1022.293" x2="1022.293" y1="724.0156" y2="744.0156"/><polygon fill="#181818" points="1018.293,734.0156,1022.293,744.0156,1026.293,734.0156,1022.293,738.0156" style="stroke:#181818;stroke-width:1;"/><line style="stroke:#181818;stroke-width:1;" x1="134.5801" x2="134.5801" y1="777.9844" y2="797.9844"/><polygon fill="#181818" points="130.5801,787.9844,134.5801,797.9844,138.5801,787.9844,134.5801,791.9844" style="stroke:#181818;stroke-width:1;"/><line style="stroke:#181818;stroke-width:1;" x1="368.0439" x2="368.0439" y1="777.9844" y2="797.9844"/><polygon fill="#181818" points="364.0439,787.9844,368.0439,797.9844,372.0439,787.9844,368.0439,791.9844" style="stroke:#181818;stroke-width:1;"/><line style="stroke:#181818;stroke-width:1;" x1="614.6152" x2="614.6152" y1="777.9844" y2="797.9844"/><polygon fill="#181818" points="610.6152,787.9844,614.6152,797.9844,618.6152,787.9844,614.6152,791.9844" style="stroke:#181818;stroke-width:1;"/><line style="stroke:#181818;stroke-width:1;" x1="834.0049" x2="834.0049" y1="777.9844" y2="797.9844"/><polygon fill="#181818" points="830.0049,787.9844,834.0049,797.9844,838.0049,787.9844,834.0049,791.9844" style="stroke:#181818;stroke-width:1;"/><line style="stroke:#181818;stroke-width:1;" x1="1022.293" x2="1022.293" y1="777.9844" y2="797.9844"/><polygon fill="#181818" points="1018.293,787.9844,1022.293,797.9844,1026.293,787.9844,1022.293,791.9844" style="stroke:#181818;stroke-width:1;"/><line style="stroke:#181818;stroke-width:1;" x1="569.4395" x2="569.4395" y1="698.0156" y2="718.0156"/><polygon fill="#181818" points="565.4395,708.0156,569.4395,718.0156,573.4395,708.0156,569.4395,712.0156" style="stroke:#181818;stroke-width:1;"/><line style="stroke:#181818;stroke-width:1;" x1="569.4395" x2="569.4395" y1="906.3555" y2="926.3555"/><polygon fill="#181818" points="565.4395,916.3555,569.4395,926.3555,573.4395,916.3555,569.4395,920.3555" style="stroke:#181818;stroke-width:1;"/><line style="stroke:#181818;stroke-width:1;" x1="653.3828" x2="653.3828" y1="1048.293" y2="1068.293"/><polygon fill="#181818" points="649.3828,1058.293,653.3828,1068.293,657.3828,1058.293,653.3828,1062.293" style="stroke:#181818;stroke-width:1;"/><line style="stroke:#181818;stroke-width:1;" x1="511.9785" x2="485.4961" y1="992.3242" y2="992.3242"/><line style="stroke:#181818;stroke-width:1;" x1="485.4961" x2="485.4961" y1="992.3242" y2="1014.3242"/><polygon fill="#181818" points="481.4961,1004.3242,485.4961,1014.3242,489.4961,1004.3242,485.4961,1008.3242" style="stroke:#181818;stroke-width:1;"/><line style="stroke:#181818;stroke-width:1;" x1="626.9004" x2="653.3828" y1="992.3242" y2="992.3242"/><line style="stroke:#181818;stroke-width:1;" x1="653.3828" x2="653.3828" y1="992.3242" y2="1014.3242"/><polygon fill="#181818" points="649.3828,1004.3242,653.3828,1014.3242,657.3828,1004.3242,653.3828,1008.3242" style="stroke:#181818;stroke-width:1;"/><line style="stroke:#181818;stroke-width:1;" x1="485.4961" x2="485.4961" y1="1048.293" y2="1120.2617"/><line style="stroke:#181818;stroke-width:1;" x1="485.4961" x2="557.4395" y1="1120.2617" y2="1120.2617"/><polygon fill="#181818" points="547.4395,1116.2617,557.4395,1120.2617,547.4395,1124.2617,551.4395,1120.2617" style="stroke:#181818;stroke-width:1;"/><line style="stroke:#181818;stroke-width:1;" x1="653.3828" x2="653.3828" y1="1102.2617" y2="1120.2617"/><line style="stroke:#181818;stroke-width:1;" x1="653.3828" x2="581.4395" y1="1120.2617" y2="1120.2617"/><polygon fill="#181818" points="591.4395,1116.2617,581.4395,1120.2617,591.4395,1124.2617,587.4395,1120.2617" style="stroke:#181818;stroke-width:1;"/><line style="stroke:#181818;stroke-width:1;" x1="569.4395" x2="569.4395" y1="960.3242" y2="980.3242"/><polygon fill="#181818" points="565.4395,970.3242,569.4395,980.3242,573.4395,970.3242,569.4395,974.3242" style="stroke:#181818;stroke-width:1;"/><line style="stroke:#181818;stroke-width:1;" x1="569.4395" x2="569.4395" y1="1132.2617" y2="1152.2617"/><polygon fill="#181818" points="565.4395,1142.2617,569.4395,1152.2617,573.4395,1142.2617,569.4395,1146.2617" style="stroke:#181818;stroke-width:1;"/><line style="stroke:#181818;stroke-width:1;" x1="569.4395" x2="569.4395" y1="847.9844" y2="872.3867"/><polygon fill="#181818" points="565.4395,862.3867,569.4395,872.3867,573.4395,862.3867,569.4395,866.3867" style="stroke:#181818;stroke-width:1;"/><line style="stroke:#181818;stroke-width:1;" x1="688.053" x2="761.834" y1="835.9844" y2="835.9844"/><polygon fill="#181818" points="757.834,1019.3086,761.834,1029.3086,765.834,1019.3086,761.834,1023.3086" style="stroke:#181818;stroke-width:1;"/><line style="stroke:#181818;stroke-width:1;" x1="761.834" x2="761.834" y1="835.9844" y2="1218.2305"/><line style="stroke:#181818;stroke-width:1;" x1="761.834" x2="581.4395" y1="1218.2305" y2="1218.2305"/><polygon fill="#181818" points="591.4395,1214.2305,581.4395,1218.2305,591.4395,1222.2305,587.4395,1218.2305" style="stroke:#181818;stroke-width:1;"/><line style="stroke:#181818;stroke-width:1;" x1="569.4395" x2="569.4395" y1="1186.2305" y2="1206.2305"/><polygon fill="#181818" points="565.4395,1196.2305,569.4395,1206.2305,573.4395,1196.2305,569.4395,1200.2305" style="stroke:#181818;stroke-width:1;"/><line style="stroke:#181818;stroke-width:1;" x1="569.4395" x2="569.4395" y1="803.9844" y2="823.9844"/><polygon fill="#181818" points="565.4395,813.9844,569.4395,823.9844,573.4395,813.9844,569.4395,817.9844" style="stroke:#181818;stroke-width:1;"/><line style="stroke:#181818;stroke-width:1;" x1="569.4395" x2="569.4395" y1="1332.6016" y2="1352.6016"/><polygon fill="#181818" points="565.4395,1342.6016,569.4395,1352.6016,573.4395,1342.6016,569.4395,1346.6016" style="stroke:#181818;stroke-width:1;"/><line style="stroke:#181818;stroke-width:1;" x1="569.4395" x2="569.4395" y1="1386.5703" y2="1406.5703"/><polygon fill="#181818" points="565.4395,1396.5703,569.4395,1406.5703,573.4395,1396.5703,569.4395,1400.5703" style="stroke:#181818;stroke-width:1;"/><line style="stroke:#181818;stroke-width:1;" x1="569.4395" x2="569.4395" y1="1440.5391" y2="1460.5391"/><polygon fill="#181818" points="565.4395,1450.5391,569.4395,1460.5391,573.4395,1450.5391,569.4395,1454.5391" style="stroke:#181818;stroke-width:1;"/><line style="stroke:#181818;stroke-width:1;" x1="569.4395" x2="569.4395" y1="1494.5078" y2="1514.5078"/><polygon fill="#181818" points="565.4395,1504.5078,569.4395,1514.5078,573.4395,1504.5078,569.4395,1508.5078" style="stroke:#181818;stroke-width:1;"/><line style="stroke:#181818;stroke-width:1;" x1="569.4395" x2="569.4395" y1="1548.4766" y2="1568.4766"/><polygon fill="#181818" points="565.4395,1558.4766,569.4395,1568.4766,573.4395,1558.4766,569.4395,1562.4766" style="stroke:#181818;stroke-width:1;"/><line style="stroke:#181818;stroke-width:1;" x1="569.4395" x2="569.4395" y1="1602.4453" y2="1622.4453"/><polygon fill="#181818" points="565.4395,1612.4453,569.4395,1622.4453,573.4395,1612.4453,569.4395,1616.4453" style="stroke:#181818;stroke-width:1;"/><line style="stroke:#181818;stroke-width:1;" x1="569.4395" x2="569.4395" y1="1700.4141" y2="1724.8164"/><polygon fill="#181818" points="565.4395,1714.8164,569.4395,1724.8164,573.4395,1714.8164,569.4395,1718.8164" style="stroke:#181818;stroke-width:1;"/><line style="stroke:#181818;stroke-width:1;" x1="622.8586" x2="634.8586" y1="1688.4141" y2="1688.4141"/><polygon fill="#181818" points="630.8586,1731.8008,634.8586,1741.8008,638.8586,1731.8008,634.8586,1735.8008" style="stroke:#181818;stroke-width:1;"/><line style="stroke:#181818;stroke-width:1;" x1="634.8586" x2="634.8586" y1="1688.4141" y2="1790.7852"/><line style="stroke:#181818;stroke-width:1;" x1="634.8586" x2="581.4395" y1="1790.7852" y2="1790.7852"/><polygon fill="#181818" points="591.4395,1786.7852,581.4395,1790.7852,591.4395,1794.7852,587.4395,1790.7852" style="stroke:#181818;stroke-width:1;"/><line style="stroke:#181818;stroke-width:1;" x1="569.4395" x2="569.4395" y1="1758.7852" y2="1778.7852"/><polygon fill="#181818" points="565.4395,1768.7852,569.4395,1778.7852,573.4395,1768.7852,569.4395,1772.7852" style="stroke:#181818;stroke-width:1;"/><line style="stroke:#181818;stroke-width:1;" x1="569.4395" x2="569.4395" y1="1656.4141" y2="1676.4141"/><polygon fill="#181818" points="565.4395,1666.4141,569.4395,1676.4141,573.4395,1666.4141,569.4395,1670.4141" style="stroke:#181818;stroke-width:1;"/><line style="stroke:#181818;stroke-width:1;" x1="569.4395" x2="569.4395" y1="1846.7852" y2="1871.1875"/><polygon fill="#181818" points="565.4395,1861.1875,569.4395,1871.1875,573.4395,1861.1875,569.4395,1865.1875" style="stroke:#181818;stroke-width:1;"/><line style="stroke:#181818;stroke-width:1;" x1="634.6133" x2="646.6133" y1="1834.7852" y2="1834.7852"/><polygon fill="#181818" points="642.6133,1878.1719,646.6133,1888.1719,650.6133,1878.1719,646.6133,1882.1719" style="stroke:#181818;stroke-width:1;"/><line style="stroke:#181818;stroke-width:1;" x1="646.6133" x2="646.6133" y1="1834.7852" y2="1937.1563"/><line style="stroke:#181818;stroke-width:1;" x1="646.6133" x2="581.4395" y1="1937.1563" y2="1937.1563"/><polygon fill="#181818" points="591.4395,1933.1563,581.4395,1937.1563,591.4395,1941.1563,587.4395,1937.1563" style="stroke:#181818;stroke-width:1;"/><line style="stroke:#181818;stroke-width:1;" x1="569.4395" x2="569.4395" y1="1905.1563" y2="1925.1563"/><polygon fill="#181818" points="565.4395,1915.1563,569.4395,1925.1563,573.4395,1915.1563,569.4395,1919.1563" style="stroke:#181818;stroke-width:1;"/><line style="stroke:#181818;stroke-width:1;" x1="569.4395" x2="569.4395" y1="1802.7852" y2="1822.7852"/><polygon fill="#181818" points="565.4395,1812.7852,569.4395,1822.7852,573.4395,1812.7852,569.4395,1816.7852" style="stroke:#181818;stroke-width:1;"/><line style="stroke:#181818;stroke-width:1;" x1="569.4395" x2="569.4395" y1="1993.1563" y2="2017.5586"/><polygon fill="#181818" points="565.4395,2007.5586,569.4395,2017.5586,573.4395,2007.5586,569.4395,2011.5586" style="stroke:#181818;stroke-width:1;"/><line style="stroke:#181818;stroke-width:1;" x1="627.9155" x2="639.9155" y1="1981.1563" y2="1981.1563"/><polygon fill="#181818" points="635.9155,2024.543,639.9155,2034.543,643.9155,2024.543,639.9155,2028.543" style="stroke:#181818;stroke-width:1;"/><line style="stroke:#181818;stroke-width:1;" x1="639.9155" x2="639.9155" y1="1981.1563" y2="2083.5273"/><line style="stroke:#181818;stroke-width:1;" x1="639.9155" x2="581.4395" y1="2083.5273" y2="2083.5273"/><polygon fill="#181818" points="591.4395,2079.5273,581.4395,2083.5273,591.4395,2087.5273,587.4395,2083.5273" style="stroke:#181818;stroke-width:1;"/><line style="stroke:#181818;stroke-width:1;" x1="569.4395" x2="569.4395" y1="2051.5273" y2="2071.5273"/><polygon fill="#181818" points="565.4395,2061.5273,569.4395,2071.5273,573.4395,2061.5273,569.4395,2065.5273" style="stroke:#181818;stroke-width:1;"/><line style="stroke:#181818;stroke-width:1;" x1="569.4395" x2="569.4395" y1="1949.1563" y2="1969.1563"/><polygon fill="#181818" points="565.4395,1959.1563,569.4395,1969.1563,573.4395,1959.1563,569.4395,1963.1563" style="stroke:#181818;stroke-width:1;"/><line style="stroke:#181818;stroke-width:1;" x1="569.4395" x2="569.4395" y1="2139.5273" y2="2163.9297"/><polygon fill="#181818" points="565.4395,2153.9297,569.4395,2163.9297,573.4395,2153.9297,569.4395,2157.9297" style="stroke:#181818;stroke-width:1;"/><line style="stroke:#181818;stroke-width:1;" x1="670.0759" x2="682.0759" y1="2127.5273" y2="2127.5273"/><polygon fill="#181818" points="678.0759,2170.9141,682.0759,2180.9141,686.0759,2170.9141,682.0759,2174.9141" style="stroke:#181818;stroke-width:1;"/><line style="stroke:#181818;stroke-width:1;" x1="682.0759" x2="682.0759" y1="2127.5273" y2="2229.8984"/><line style="stroke:#181818;stroke-width:1;" x1="682.0759" x2="581.4395" y1="2229.8984" y2="2229.8984"/><polygon fill="#181818" points="591.4395,2225.8984,581.4395,2229.8984,591.4395,2233.8984,587.4395,2229.8984" style="stroke:#181818;stroke-width:1;"/><line style="stroke:#181818;stroke-width:1;" x1="569.4395" x2="569.4395" y1="2197.8984" y2="2217.8984"/><polygon fill="#181818" points="565.4395,2207.8984,569.4395,2217.8984,573.4395,2207.8984,569.4395,2211.8984" style="stroke:#181818;stroke-width:1;"/><line style="stroke:#181818;stroke-width:1;" x1="569.4395" x2="569.4395" y1="2095.5273" y2="2115.5273"/><polygon fill="#181818" points="565.4395,2105.5273,569.4395,2115.5273,573.4395,2105.5273,569.4395,2109.5273" style="stroke:#181818;stroke-width:1;"/><line style="stroke:#181818;stroke-width:1;" x1="569.4395" x2="569.4395" y1="2241.8984" y2="2261.8984"/><polygon fill="#181818" points="565.4395,2251.8984,569.4395,2261.8984,573.4395,2251.8984,569.4395,2255.8984" style="stroke:#181818;stroke-width:1;"/><line style="stroke:#181818;stroke-width:1;" x1="569.4395" x2="569.4395" y1="1274.2305" y2="1298.6328"/><polygon fill="#181818" points="565.4395,1288.6328,569.4395,1298.6328,573.4395,1288.6328,569.4395,1292.6328" style="stroke:#181818;stroke-width:1;"/><line style="stroke:#181818;stroke-width:1;" x1="659.5432" x2="692.0759" y1="1262.2305" y2="1262.2305"/><polygon fill="#181818" points="688.0759,1769.1523,692.0759,1779.1523,696.0759,1769.1523,692.0759,1773.1523" style="stroke:#181818;stroke-width:1;"/><line style="stroke:#181818;stroke-width:1;" x1="692.0759" x2="692.0759" y1="1262.2305" y2="2327.8672"/><line style="stroke:#181818;stroke-width:1;" x1="692.0759" x2="581.4395" y1="2327.8672" y2="2327.8672"/><polygon fill="#181818" points="591.4395,2323.8672,581.4395,2327.8672,591.4395,2331.8672,587.4395,2327.8672" style="stroke:#181818;stroke-width:1;"/><line style="stroke:#181818;stroke-width:1;" x1="569.4395" x2="569.4395" y1="2295.8672" y2="2315.8672"/><polygon fill="#181818" points="565.4395,2305.8672,569.4395,2315.8672,573.4395,2305.8672,569.4395,2309.8672" style="stroke:#181818;stroke-width:1;"/><line style="stroke:#181818;stroke-width:1;" x1="569.4395" x2="569.4395" y1="1230.2305" y2="1250.2305"/><polygon fill="#181818" points="565.4395,1240.2305,569.4395,1250.2305,573.4395,1240.2305,569.4395,1244.2305" style="stroke:#181818;stroke-width:1;"/><line style="stroke:#181818;stroke-width:1;" x1="569.4395" x2="569.4395" y1="2442.2383" y2="2462.2383"/><polygon fill="#181818" points="565.4395,2452.2383,569.4395,2462.2383,573.4395,2452.2383,569.4395,2456.2383" style="stroke:#181818;stroke-width:1;"/><line style="stroke:#181818;stroke-width:1;" x1="569.4395" x2="569.4395" y1="2496.207" y2="2516.207"/><polygon fill="#181818" points="565.4395,2506.207,569.4395,2516.207,573.4395,2506.207,569.4395,2510.207" style="stroke:#181818;stroke-width:1;"/><line style="stroke:#181818;stroke-width:1;" x1="569.4395" x2="569.4395" y1="2383.8672" y2="2408.2695"/><polygon fill="#181818" points="565.4395,2398.2695,569.4395,2408.2695,573.4395,2398.2695,569.4395,2402.2695" style="stroke:#181818;stroke-width:1;"/><line style="stroke:#181818;stroke-width:1;" x1="670.5352" x2="721.0059" y1="2371.8672" y2="2371.8672"/><polygon fill="#181818" points="717.0059,2469.2227,721.0059,2479.2227,725.0059,2469.2227,721.0059,2473.2227" style="stroke:#181818;stroke-width:1;"/><line style="stroke:#181818;stroke-width:1;" x1="721.0059" x2="721.0059" y1="2371.8672" y2="2582.1758"/><line style="stroke:#181818;stroke-width:1;" x1="721.0059" x2="581.4395" y1="2582.1758" y2="2582.1758"/><polygon fill="#181818" points="591.4395,2578.1758,581.4395,2582.1758,591.4395,2586.1758,587.4395,2582.1758" style="stroke:#181818;stroke-width:1;"/><line style="stroke:#181818;stroke-width:1;" x1="569.4395" x2="569.4395" y1="2550.1758" y2="2570.1758"/><polygon fill="#181818" points="565.4395,2560.1758,569.4395,2570.1758,573.4395,2560.1758,569.4395,2564.1758" style="stroke:#181818;stroke-width:1;"/><line style="stroke:#181818;stroke-width:1;" x1="569.4395" x2="569.4395" y1="2339.8672" y2="2359.8672"/><polygon fill="#181818" points="565.4395,2349.8672,569.4395,2359.8672,573.4395,2349.8672,569.4395,2353.8672" style="stroke:#181818;stroke-width:1;"/><line style="stroke:#181818;stroke-width:1;" x1="569.4395" x2="569.4395" y1="2594.1758" y2="2614.1758"/><polygon fill="#181818" points="565.4395,2604.1758,569.4395,2614.1758,573.4395,2604.1758,569.4395,2608.1758" style="stroke:#181818;stroke-width:1;"/><line style="stroke:#181818;stroke-width:1;" x1="569.4395" x2="569.4395" y1="2648.1445" y2="2668.1445"/><polygon fill="#181818" points="565.4395,2658.1445,569.4395,2668.1445,573.4395,2658.1445,569.4395,2662.1445" style="stroke:#181818;stroke-width:1;"/><?plantuml-src VLNBRjim4BphAtXCW02vHuV2QTgc1TeQSPCxHQxbJIckoeVHv6zwxA6dV421-iUwf6JPakq0EJZOuJvcPrO1Wm7ntiH74ije5PALHcWmedNq12gG02lIl-G2Hz06S9QAmWVfGb5SVRIr0o-Ta5jCMLpDOW0RK4ddeN_lqGTeP5aKk1HdzpvAXoGKMT62Qz2JVtCkmeh1PulDd_D2YAlFv8FZp5hwLKNIwR80mmdFlj0eBfK2JzoqXLfgAZdc0xK5M8tBr69khjcyw6WIJCpxqNpVpR-_ys7OdwdFWrOMO41bSjn0pAIRjmuuQ2EiQG_2WJkeSJi8rnGrz-ca0J-YEKDd7kjKWXbjoNfP9TIJQ12QogLs6VE1cTFZDlev7v1PDVZCmIMgbPpaBvRalkTEENKqeQiJ6vvp34mu8Mk9TepMf18wI8MR5zjJnNeu_QB2iFcboALMX99DXMc8K-ZRUsx8o4mpx_mqS7ut0J838a_NhtC13FWH4HpikdQ2M2gXf-XWnUzi9wP1A3UZSSkf37pwrGVuRrjOxPCpBPBAQ4ojiF2PE-pKkg-ZaPBagCf8IqC2jYGgJBRZH5a9kPz19sjmFhUaORB1GJa3QTYq1X9WyoAYxJTscgdhxNhBgG6wbnFv1snf9uIfDy0hXst7td29NWE5pM_5eyi99YLFgcJVR4VllKLCKoAkOMybX4_piYBuPgHBiDtXDtuEIOoVqCaZ6tn0gwB9UjrnFddD2hs1zTVMl_P-VdVolTIFqGOwzdmHAtG3u4Y6M_aagFBWrjaX_Pr9TcZfIBuPt--wuoMx12T91o5rQqldlDhjVQgWmNQgToj_5DW8dFNGSTVHgxr3TjaLkDI7ldkF9k-MFp1Y2NpQBhAOBlOF9RiRVEZl__ujNB4moB53M16SvLbMQ51BlJkSi-4gxBurWjt0OSK9kKXPf2_AVm00?></g></svg>